# AST/ASF file generated using VICON BodyLanguage
# -----------------------------------------------
:version 1.10
:name VICON
:units
  mass 1.0
  length 0.45
  angle deg
:documentation
   .ast/.asf automatically generated from VICON data using
   VICON BodyBuilder and BodyLanguage model FoxedUp or BRILLIANT.MOD
:root
   order TX TY TZ RX RY RZ
   axis XYZ
   position 0 0 0  
   orientation 0 0 0 
:bonedata
  begin
     id 1 
     name lhipjoint
     direction 0.64773 -0.699417 0.302095 
     length 2.48597 
     axis 0 0 0  XYZ
  end
  begin
     id 2 
     name lfemur
     direction 0.34202 -0.939693 0  
     length 6.71947  
     axis 0 0 20  XYZ
    dof rx ry rz
    limits (-160.0 20.0)
           (-70.0 70.0)
           (-60.0 70.0)
  end
  begin
     id 3 
     name ltibia
     direction 0.34202 -0.939693 0   
     length 8.08777   
     axis 0 0 20   XYZ
    dof rx
    limits (-10.0 170.0)
  end
  begin
     id 4 
     name lfoot
     direction 0.0808503 -0.222134 0.971658   
     length 2.08264   
     axis -90 7.62852e-016 20   XYZ
    dof rx rz
    limits (-45.0 90.0)
           (-70.0 20.0)
  end
  begin
     id 5 
     name ltoes
     direction 1.53502e-011 -4.22007e-011 1   
     length 1.04662   
     axis -90 7.62852e-016 20   XYZ
    dof rx
    limits (-90.0 20.0)
  end
  begin
     id 6 
     name rhipjoint
     direction -0.610924 -0.726792 0.313919   
     length 2.39233  
     axis 0 0 0  XYZ 
  end
  begin
     id 7 
     name rfemur
     direction -0.34202 -0.939693 0   
     length 6.96955   
     axis 0 0 -20   XYZ
    dof rx ry rz
    limits (-160.0 20.0)
           (-70.0 70.0)
           (-70.0 60.0)
  end
  begin
     id 8 
     name rtibia
     direction -0.34202 -0.939693 0   
     length 8.19584   
     axis 0 0 -20   XYZ
    dof rx
    limits (-10.0 170.0)
 end
 begin
     id 9 
     name rfoot
     direction -0.077777 -0.213691 0.9738   
     length 2.07539  
     axis -90 -7.62852e-016 -20   XYZ
    dof rx rz
    limits (-45.0 90.0)
           (-20.0 70.0)
  end
  begin
     id 10 
     name rtoes
     direction -1.53558e-011 -4.22006e-011 1   
     length 1.04381   
     axis -90 -7.62852e-016 -20   XYZ
    dof rx
    limits (-90.0 20.0)
  end
  begin
     id 11 
     name lowerback
     direction -0.00971646 0.996074 0.0879841   
     length 1.67643   
     axis 0 0 0   XYZ
    dof rx ry rz
    limits (-20.0 45.0)
           (-30.0 30.0)
           (-30.0 30.0)
  end
  begin
     id 12 
     name upperback
     direction 0.0127391 0.991676 0.128127   
     length 1.63741   
     axis 0 0 0   XYZ
    dof rx ry rz
    limits (-20.0 45.0)
           (-30.0 30.0)
           (-30.0 30.0)
  end
  begin
     id 13 
     name thorax
     direction 0.0167583 0.996049 0.0872067   
     length 1.65931   
     axis 0 0 0   XYZ
    dof rx ry rz
    limits (-20.0 45.0)
           (-30.0 30.0)
           (-30.0 30.0)
  end
  begin
     id 14 
     name lowerneck
     direction -0.0317829 0.998312 0.0486079   
     length 1.79021   
     axis 0 0 0   XYZ
    dof rx ry rz
    limits (-20.0 45.0)
           (-30.0 30.0)
           (-30.0 30.0)
  end
  begin
     id 15 
     name upperneck
     direction 0.0896851 0.972452 -0.215159   
     length 1.78797   
     axis 0 0 0   XYZ
    dof rx ry rz
    limits (-20.0 45.0)
           (-30.0 30.0)
           (-30.0 30.0)
  end
  begin
     id 16
     name head
     direction 0.0310949 0.996503 -0.0775582  
     length 1.81549  
     axis 0 0 0   XYZ
    dof rx ry rz
    limits (-20.0 45.0)
           (-30.0 30.0)
           (-30.0 30.0)
  end
  begin
     id 17 
     name lclavicle
     direction 0.853638 0.502051 -0.138733  
     length 3.31627  
     axis 0 0 0   XYZ
    dof ry rz
    limits (-20.0 10.0)
           (0.0 20.0)
  end
  begin
     id 18 
     name lhumerus
     direction 1 -4.48962e-011 -1.41788e-018   
     length 5.54893   
     axis 180 -30 -90   XYZ
    dof rx ry rz
    limits (-60.0 90.0)
           (-90.0 90.0)
           (-90.0 90.0)
  end
  begin
     id 19
     name lradius
     direction 1 -4.48962e-011 -4.95754e-027   
     length 3.02898   
     axis 180 -30 -90   XYZ
    dof rx
    limits (-10.0 170.0)
  end
  begin
     id 20
     name lwrist
     direction 1 -4.48952e-011 -1.03764e-026   
     length 1.51449   
     axis 9.09556e-015 90 90   XYZ
    dof ry
    limits (-180.0 0.0)
 end
  begin
     id 21 
     name lhand
     direction 1 -4.4902e-011 -2.07528e-026   
     length 0.640951   
     axis 1.3242e-014 90 90   XYZ
    dof rx rz
    limits (-90.0 90.0)
           (-45.0 45.0)
  end
  begin
     id 22 
     name lfingers
     direction 1 -4.49014e-011 -4.15056e-026   
     length 0.516751   
     axis 2.64841e-014 90 90   XYZ
    dof rx
    limits (0.0 90.0)
  end
  begin
     id 23
     name lthumb
     direction 0.707107 -6.35008e-011 0.707107   
     length 0.741954   
     axis -90 45 2.85299e-015   XYZ
    dof rx rz
    limits (-45.0 45.0)
           (-45.0 45.0)
  end
  begin
     id 24 
     name rclavicle
     direction -0.888531 0.455324 -0.0565039   
     length 3.20126  
     axis 0 0 0   XYZ 
    dof ry rz
    limits (-10.0 20.0)
           (-20.0 0.0)
  end
  begin
     id 25 
     name rhumerus
     direction -1 -4.48946e-011 -8.98298e-028  
     length 5.3519   
     axis 180 30 90   XYZ
    dof rx ry rz
    limits (-90.0 60.0)
           (-90.0 90.0)
           (-90.0 90.0)
  end
  begin
     id 26 
     name rradius
     direction -1 -4.4899e-011 -3.18779e-027   
     length 3.02531   
     axis 180 30 90   XYZ
    dof rx
    limits (-10.0 170.0)
  end
  begin
     id 27 
     name rwrist
     direction -1 -4.4897e-011 -1.03764e-026   
     length 1.51266   
     axis 9.09556e-015 -90 -90   XYZ
    dof ry
    limits (-180.0 0.0)
  end
  begin
     id 28
     name rhand
     direction -1 -4.48941e-011 -2.07528e-026   
     length 0.78389   
     axis 1.3242e-014 -90 -90   XYZ
    dof rx rz
    limits (-90.0 90.0)
           (-45.0 45.0)
  end
  begin
     id 29
     name rfingers
     direction -1 -4.49012e-011 -4.15056e-026   
     length 0.631992   
     axis 2.64841e-014 -90 -90   XYZ
    dof rx
    limits (0.0 90.0)
  end
  begin
     id 30
     name rthumb
     direction -0.707107 -6.3496e-011 0.707107   
     length 0.907418   
     axis -90 -45 -2.85299e-015   XYZ
    dof rx rz
    limits (-45.0 45.0)
           (-45.0 45.0)
  end
:hierarchy
  begin
    root lhipjoint rhipjoint lowerback
    lhipjoint lfemur
    lfemur ltibia
    ltibia lfoot
    lfoot ltoes
    rhipjoint rfemur
    rfemur rtibia
    rtibia rfoot
    rfoot rtoes
    lowerback upperback
    upperback thorax
    thorax lowerneck lclavicle rclavicle
    lowerneck upperneck
    upperneck head
    lclavicle lhumerus
    lhumerus lradius
    lradius lwrist
    lwrist lhand lthumb
    lhand lfingers
    rclavicle rhumerus
    rhumerus rradius
    rradius rwrist
    rwrist rhand rthumb
    rhand rfingers
  end

#!OML:ASF E:\Style3\Style3.ASF
:FULLY-SPECIFIED
:DEGREES
566
root 0.408835 17.2356 1.65037 -171.187 36.3709 -178.711
lowerback -12.0097 1.036 2.13423
upperback -11.838 2.81331 2.1692
thorax -5.83632 1.98992 1.21167
lowerneck -4.17352 -0.873309 -6.9791
upperneck -1.11171 -0.227349 19.5468
head 0.453641 0.341278 7.12873
rclavicle 8.34896e-015 -4.09496e-014
rhumerus 11.3884 30.034 -91.9334
rradius 138.787
rwrist -76.2524
rhand -34.0698 13.3525
rfingers 7.12502
rthumb -7.24697 -16.5034
lclavicle 8.34896e-015 -4.09496e-014
lhumerus 12.86 -24.4024 98.4667
lradius 139.363
lwrist 82.7728
lhand -34.4141 29.926
lfingers 7.12502
lthumb -7.57928 59.7702
rfemur -1.55171 -0.0465142 22.3219
rtibia 20.6031
rfoot -25.9064 -34.1921
rtoes -1.87374
lfemur -31.5132 -19.4369 -6.34032
ltibia 25.8677
lfoot -8.02132 -7.92974
ltoes -29.1402
567
root 0.410011 17.2346 1.66516 -171.717 36.3741 -178.923
lowerback -12.0728 0.694046 1.99928
upperback -11.8026 2.37234 2.46705
thorax -5.77649 1.7916 1.57433
lowerneck -4.13118 -0.573604 -7.28877
upperneck -0.920201 0.154516 19.7285
head 0.448526 0.531457 7.24959
rclavicle -1.37161e-014 -1.03368e-014
rhumerus 11.3916 30.9643 -92.2696
rradius 139.024
rwrist -76.1195
rhand -33.4087 13.1623
rfingers 7.12502
rthumb -6.60872 -16.7145
lclavicle -1.37161e-014 -1.03368e-014
lhumerus 13.2474 -23.8481 98.3126
lradius 139.914
lwrist 82.9581
lhand -33.8904 29.6113
lfingers 7.12502
lthumb -7.07377 59.4731
rfemur -1.20723 0.0159605 22.1775
rtibia 20.7245
rfoot -26.0203 -34.2142
rtoes -1.54552
lfemur -30.9551 -19.4562 -6.66577
ltibia 25.6524
lfoot -8.00905 -8.02822
ltoes -29.1703
568
root 0.410534 17.234 1.67741 -172.308 36.37 -179.149
lowerback -12.0712 0.362836 1.94408
upperback -11.6742 1.92981 2.9016
thorax -5.64717 1.58716 2.03619
lowerneck -4.42804 -0.330972 -8.45193
upperneck -0.571535 0.464523 20.1916
head 0.554852 0.70483 7.61833
rclavicle -1.27222e-014 -1.51076e-014
rhumerus 11.6571 32.2069 -92.1317
rradius 139.295
rwrist -75.7446
rhand -32.9138 13.2499
rfingers 7.12502
rthumb -6.13098 -16.6414
lclavicle -1.27222e-014 -1.51076e-014
lhumerus 13.7295 -23.1417 98.2725
lradius 140.508
lwrist 83.2349
lhand -33.566 29.8062
lfingers 7.12502
lthumb -6.7606 59.6782
rfemur -0.806777 0.188652 22.0266
rtibia 20.8708
rfoot -26.2851 -34.246
rtoes -1.01007
lfemur -30.3527 -19.6258 -6.98853
ltibia 25.4527
lfoot -7.933 -8.02159
ltoes -28.9086
569
root 0.409305 17.2317 1.68649 -172.884 36.3679 -179.286
lowerback -12.0761 0.132398 1.96128
upperback -11.5402 1.60322 3.15821
thorax -5.49701 1.42459 2.27761
lowerneck -4.4915 0.0341048 -8.60652
upperneck -0.463386 0.927037 19.9605
head 0.525039 0.922695 7.57748
rclavicle 3.57812e-014 -1.19271e-014
rhumerus 12.0156 33.2175 -92.0405
rradius 139.513
rwrist -74.9317
rhand -32.5979 13.371
rfingers 7.12502
rthumb -5.82601 -16.529
lclavicle 3.57812e-014 -1.19271e-014
lhumerus 14.1101 -22.8351 98.0598
lradius 140.897
lwrist 83.1313
lhand -32.5946 29.5238
lfingers 7.12502
lthumb -5.82283 59.4238
rfemur -0.374612 0.242747 21.9256
rtibia 21.0234
rfoot -26.501 -34.2236
rtoes -0.363761
lfemur -29.7175 -19.7412 -7.29088
ltibia 25.2852
lfoot -7.87503 -8.0412
ltoes -28.7271
570
root 0.409673 17.228 1.69626 -173.367 36.4278 -179.453
lowerback -12.2421 -0.0513064 1.90121
upperback -11.4895 1.34996 3.24066
thorax -5.34636 1.30239 2.38525
lowerneck -3.6285 0.774221 -7.64241
upperneck -1.05314 1.91962 18.9839
head 0.0716932 1.32174 7.0815
rclavicle -3.53837e-014 -6.12257e-014
rhumerus 12.1409 34.0542 -92.2372
rradius 139.855
rwrist -74.1049
rhand -32.3523 13.4288
rfingers 7.12502
rthumb -5.58885 -16.4775
lclavicle -3.53837e-014 -6.12257e-014
lhumerus 14.2955 -22.6845 97.7166
lradius 141.318
lwrist 83.0545
lhand -31.5592 29.1425
lfingers 7.12502
lthumb -4.82306 59.0676
rfemur -0.0815425 0.264868 21.7895
rtibia 21.2054
rfoot -26.6696 -34.1446
rtoes -0.0134636
lfemur -29.1869 -19.7114 -7.59792
ltibia 25.1281
lfoot -7.83316 -8.13866
ltoes -28.5132
571
root 0.411733 17.2247 1.70432 -173.786 36.5452 -179.611
lowerback -12.3914 0.0499829 2.02306
upperback -11.5557 1.48997 3.18995
thorax -5.34039 1.36977 2.27609
lowerneck -4.01559 0.225617 -8.37284
upperneck -0.243401 1.10784 19.7405
head 0.478065 0.986333 7.46148
rclavicle 2.8625e-014 6.52014e-014
rhumerus 12.0278 34.458 -92.0493
rradius 140.236
rwrist -73.2081
rhand -32.4022 14.0748
rfingers 7.12502
rthumb -5.63703 -15.8302
lclavicle 2.8625e-014 6.52014e-014
lhumerus 14.2302 -22.9734 97.9318
lradius 141.894
lwrist 83.4943
lhand -30.8052 28.9818
lfingers 7.12502
lthumb -4.09502 58.9222
rfemur 0.137384 0.343392 21.6643
rtibia 21.4107
rfoot -26.7525 -34.13
rtoes 0.229314
lfemur -28.7294 -19.7466 -7.84426
ltibia 24.9987
lfoot -7.81561 -8.07438
ltoes -28.6532
572
root 0.413415 17.2205 1.71536 -174.269 36.6286 -179.886
lowerback -12.434 0.0320284 2.0541
upperback -11.5667 1.45476 3.0801
thorax -5.32382 1.34285 2.14121
lowerneck -4.04221 0.277671 -8.21824
upperneck -0.0346304 1.14184 19.7072
head 0.537445 1.01232 7.42475
rclavicle -5.60573e-014 -3.18055e-015
rhumerus 12.1273 35.1086 -92.0404
rradius 140.542
rwrist -72.147
rhand -32.3823 14.767
rfingers 7.12502
rthumb -5.61783 -15.1385
lclavicle -5.60573e-014 -3.18055e-015
lhumerus 14.3644 -23.0853 97.7175
lradius 142.424
lwrist 83.8794
lhand -29.9253 28.6405
lfingers 7.12502
lthumb -3.2453 58.5956
rfemur 0.319892 0.397529 21.4538
rtibia 21.6513
rfoot -26.5793 -34.2807
rtoes -0.160921
lfemur -28.291 -19.7517 -8.19354
ltibia 24.8734
lfoot -7.78469 -8.08672
ltoes -28.9153
573
root 0.413563 17.2175 1.72979 -174.709 36.6285 -180.105
lowerback -12.4938 -0.145105 2.04521
upperback -11.5742 1.21068 3.03115
thorax -5.29111 1.21625 2.07764
lowerneck -3.19048 0.99582 -7.1798
upperneck -0.696172 2.12871 18.7944
head 0.0736635 1.41164 6.93491
rclavicle -9.02482e-014 -6.2816e-014
rhumerus 12.2451 35.9488 -92.2929
rradius 140.813
rwrist -71.266
rhand -32.0349 15.0089
rfingers 7.12502
rthumb -5.28242 -14.9053
lclavicle -9.02482e-014 -6.2816e-014
lhumerus 14.4692 -22.9432 97.2391
lradius 142.85
lwrist 84.1578
lhand -28.7572 27.9944
lfingers 7.12502
lthumb -2.11717 57.9636
rfemur 0.476384 0.412859 21.2939
rtibia 21.8772
rfoot -26.5706 -34.3637
rtoes -0.143871
lfemur -27.9028 -19.7016 -8.49969
ltibia 24.7565
lfoot -7.70207 -8.23596
ltoes -28.7627
574
root 0.415863 17.214 1.74236 -175.091 36.6602 -180.262
lowerback -12.5929 -0.206916 2.06934
upperback -11.5565 1.1183 3.01549
thorax -5.21491 1.16612 2.04284
lowerneck -3.38758 0.941973 -7.2049
upperneck -0.293282 1.99789 18.8338
head 0.239429 1.37121 6.95674
rclavicle 1.35174e-014 1.98785e-014
rhumerus 12.4394 36.4389 -92.2535
rradius 141.133
rwrist -70.8665
rhand -31.504 15.2128
rfingers 7.12502
rthumb -4.76982 -14.7135
lclavicle 1.35174e-014 1.98785e-014
lhumerus 14.6473 -23.0295 97.1409
lradius 143.428
lwrist 84.2253
lhand -27.9489 27.9128
lfingers 7.12502
lthumb -1.3366 57.8883
rfemur 0.634715 0.469238 21.1983
rtibia 22.0995
rfoot -26.6192 -34.4355
rtoes -0.0468373
lfemur -27.5109 -19.6208 -8.74104
ltibia 24.6388
lfoot -7.65104 -8.37545
ltoes -28.4248
575
root 0.418074 17.2088 1.75314 -175.522 36.7277 -180.444
lowerback -12.6566 -0.154522 2.13466
upperback -11.5366 1.17118 2.92144
thorax -5.15659 1.18152 1.91284
lowerneck -3.26669 0.920692 -7.29526
upperneck -0.221796 1.95989 18.9411
head 0.24252 1.35128 7.00613
rclavicle -2.66371e-014 -2.8625e-014
rhumerus 12.5608 36.6812 -92.1413
rradius 141.526
rwrist -70.4991
rhand -30.9395 15.4197
rfingers 7.12502
rthumb -4.2247 -14.5182
lclavicle -2.66371e-014 -2.8625e-014
lhumerus 14.9121 -23.3066 97.2304
lradius 144.002
lwrist 84.1136
lhand -27.3235 27.6213
lfingers 7.12502
lthumb -0.732531 57.5998
rfemur 0.870331 0.483778 21.0663
rtibia 22.2937
rfoot -26.6433 -34.4374
rtoes -0.127084
lfemur -27.0828 -19.5331 -9.03084
ltibia 24.5492
lfoot -7.68573 -8.45027
ltoes -28.6693
